<svg width="512" height="512" viewBox="0 0 512 512" fill="none" xmlns="http://www.w3.org/2000/svg">
<g clip-path="url(#clip0_20_677)">
<rect width="512" height="512" fill="black"/>
<path opacity="0.34" d="M89.5693 219.678C96.7352 201.417 116.087 191.047 135.261 195.194L457.218 264.828C478.29 269.386 491.959 289.824 488.124 311.039L439.366 580.782C435.741 600.834 417.623 614.956 397.294 613.576L1.46844 586.698C-25.5097 584.867 -42.935 557.35 -33.0575 532.179L89.5693 219.678Z" fill="#9E78FF"/>
<rect opacity="0.37" width="512" height="196" transform="matrix(1 0 0 -1 0 512)" fill="url(#paint0_linear_20_677)"/>
<g filter="url(#filter0_d_20_677)">
<path d="M387.667 361.333V387.667H256V361.333H387.667Z" fill="#665591"/>
<path d="M374.501 161.45C374.502 155.098 371.971 149.007 367.48 144.515C362.991 140.026 356.908 137.497 350.559 137.495C344.21 137.494 338.116 140.016 333.625 144.503L157.881 320.285C156.354 321.809 155.222 323.688 154.589 325.75L140.78 371.19L186.297 357.394L187.802 356.841C189.272 356.189 190.616 355.27 191.762 354.128L367.48 178.384L369.075 176.622C372.566 172.362 374.499 167.005 374.501 161.45ZM400.834 161.45C400.833 173.953 396.176 185.979 387.822 195.202L386.099 197.002L210.355 372.772C205.777 377.336 200.145 380.714 193.961 382.596L136.639 399.98L136.601 399.993C133.189 401.017 129.563 401.091 126.109 400.224C122.653 399.355 119.489 397.572 116.967 395.055C114.443 392.536 112.647 389.369 111.772 385.913C110.899 382.46 110.971 378.834 111.99 375.421L112.016 375.369L129.4 318.061L129.413 318.022C131.312 311.833 134.703 306.2 139.288 301.628L314.994 125.884C324.425 116.456 337.224 111.16 350.559 111.162C363.894 111.164 376.684 116.467 386.112 125.897C395.538 135.327 400.836 148.116 400.834 161.45Z" fill="white"/>
<path d="M349.643 199.358L331.025 217.977L293.9 180.852L312.519 162.234L349.643 199.358Z" fill="white"/>
</g>
</g>
<defs>
<filter id="filter0_d_20_677" x="81.9" y="81.9" width="348.2" height="348.2" filterUnits="userSpaceOnUse" color-interpolation-filters="sRGB">
<feFlood flood-opacity="0" result="BackgroundImageFix"/>
<feColorMatrix in="SourceAlpha" type="matrix" values="0 0 0 0 0 0 0 0 0 0 0 0 0 0 0 0 0 0 127 0" result="hardAlpha"/>
<feOffset/>
<feGaussianBlur stdDeviation="8.05"/>
<feComposite in2="hardAlpha" operator="out"/>
<feColorMatrix type="matrix" values="0 0 0 0 0 0 0 0 0 0 0 0 0 0 0 0 0 0 0.11 0"/>
<feBlend mode="normal" in2="BackgroundImageFix" result="effect1_dropShadow_20_677"/>
<feBlend mode="normal" in="SourceGraphic" in2="effect1_dropShadow_20_677" result="shape"/>
</filter>
<linearGradient id="paint0_linear_20_677" x1="256" y1="0" x2="256" y2="196" gradientUnits="userSpaceOnUse">
<stop/>
<stop offset="1" stop-opacity="0"/>
</linearGradient>
<clipPath id="clip0_20_677">
<rect width="512" height="512" fill="white"/>
</clipPath>
</defs>
</svg>
